<svg height="958" width="1162" viewBox="1852 803 1162 958" style="background-color:transparent;" preserveAspectRatio="xMinYMin meet" xmlns:xlink="http://www.w3.org/1999/xlink" xmlns="http://www.w3.org/2000/svg"><defs><style type="text/css">.svg-txt-center tspan {text-anchor: middle;}.svg-txt-right tspan {text-anchor: end;}</style></defs><g transform="translate(0,0)"><rect style="fill: #ccccff;fill-opacity: 0;stroke-opacity:1;stroke-width: 3;stroke:#333333;" rx="9" height="154" width="353" y="1120" x="2105"/><text style="font-weight:bold; font-size: 48px; text-anchor: middle; font-family: arial,helvetica,sans-serif; fill: #333333;" class="" y="1183" x="2281">moleculas</text><text style="font-weight:bold; font-size: 48px; text-anchor: middle; font-family: arial,helvetica,sans-serif; fill: #333333;" class="" y="1238" x="2281">hospitalarias</text></g><g transform="translate(0,0)"><path style="fill:none;stroke:#333333;stroke-width:1;;" d="M2476,1036 C2521,1036 2521,1106  2566,1106"/><text style="font-weight:Normal; font-size: 12px; text-anchor: middle; font-family: sans-serif; fill: #333333;" class="" y="1085" x="2562"/><text style="font-weight:Normal; font-size: 12px; text-anchor: start; font-family: sans-serif; fill: #333333;" class="" y="1071" x="2521"/><text style="font-weight:Normal; font-size: 12px; text-anchor: middle; font-family: sans-serif; fill: #333333;" class="" y="1032" x="2496"/></g><g transform="translate(0,0)"><path style="fill:none;stroke:#333333;stroke-width:1;;" d="M2065,1090 C2065,1032 2331,1032  2331,974"/><text style="font-weight:Normal; font-size: 12px; text-anchor: middle; font-family: sans-serif; fill: #333333;" class="" y="967" x="2311"/><text style="font-weight:Normal; font-size: 12px; text-anchor: start; font-family: sans-serif; fill: #333333;" class="" y="1032" x="2198"/><text style="font-weight:Normal; font-size: 12px; text-anchor: middle; font-family: sans-serif; fill: #333333;" class="" y="1071" x="2071"/></g><g transform="translate(0,0)"><rect style="fill: #ccccff;fill-opacity: 0;stroke-opacity:1;stroke-width: 2;stroke:#333333;" rx="9" height="67" width="217" y="1000" x="2257"/><text style="font-weight:bold; font-size: 18px; text-anchor: middle; font-family: arial,helvetica,sans-serif; fill: #333333;" class="" y="1033" x="2365">espacio intramolecular</text></g><g transform="translate(0,0)"><path style="fill:none;stroke:#333333;stroke-width:1;;" d="M2660,1106 C2696,1106 2696,1148  2732,1148"/><text style="font-weight:Normal; font-size: 12px; text-anchor: middle; font-family: sans-serif; fill: #333333;" class="" y="1127" x="2725"/><text style="font-weight:Normal; font-size: 12px; text-anchor: start; font-family: sans-serif; fill: #333333;" class="" y="1127" x="2696"/><text style="font-weight:Normal; font-size: 12px; text-anchor: middle; font-family: sans-serif; fill: #333333;" class="" y="1100" x="2679"/></g><g transform="translate(0,0)"><path style="fill:none;stroke:#333333;stroke-width:1;;" d="M2660,1106 C2665,1106 2670,1148  2670,1190"/><text style="font-weight:Normal; font-size: 12px; text-anchor: middle; font-family: sans-serif; fill: #333333;" class="" y="1173" x="2682"/><text style="font-weight:Normal; font-size: 12px; text-anchor: start; font-family: sans-serif; fill: #333333;" class="" y="1132" x="2666"/><text style="font-weight:Normal; font-size: 12px; text-anchor: middle; font-family: sans-serif; fill: #333333;" class="" y="1117" x="2675"/></g><g transform="translate(0,0)"><path style="fill:none;stroke:#333333;stroke-width:1;;" d="M2831,1148 C2851.5,1148 2851.5,1079  2872,1079"/><text style="font-weight:Normal; font-size: 12px; text-anchor: middle; font-family: sans-serif; fill: #333333;" class="" y="1085" x="2851"/><text style="font-weight:Normal; font-size: 12px; text-anchor: start; font-family: sans-serif; fill: #333333;" class="" y="1113" x="2851"/><text style="font-weight:Normal; font-size: 12px; text-anchor: middle; font-family: sans-serif; fill: #333333;" class="" y="1128" x="2825"/></g><g transform="translate(0,0)"><path style="fill:none;stroke:#333333;stroke-width:1;;" d="M2496,934 C2496,966 2365,966  2365,998"/><text style="font-weight:Normal; font-size: 12px; text-anchor: middle; font-family: sans-serif; fill: #333333;" class="" y="1003" x="2385"/><text style="font-weight:Normal; font-size: 12px; text-anchor: start; font-family: sans-serif; fill: #333333;" class="" y="966" x="2430"/><text style="font-weight:Normal; font-size: 12px; text-anchor: middle; font-family: sans-serif; fill: #333333;" class="" y="953" x="2490"/></g><g transform="translate(0,0)"><path style="fill:none;stroke:#333333;stroke-width:1;;" d="M2510,934 C2510,934 2503.1415879151173,1040.7266323330764 2506,1094 2509.3871416872425,1157.1275124390793 2531,1282 2531,1282"/><text style="font-weight:Normal; font-size: 12px; text-anchor: middle; font-family: sans-serif; fill: #333333;" class="" y="1265" x="2542"/><text style="font-weight:Normal; font-size: 12px; text-anchor: start; font-family: sans-serif; fill: #333333;" class="" y="1082" x="2506"/><text style="font-weight:Normal; font-size: 12px; text-anchor: middle; font-family: sans-serif; fill: #333333;" class="" y="947" x="2524"/></g><g transform="translate(0,0)"><path style="fill:none;stroke:#333333;stroke-width:1;;" d="M2615,832 C2570.5,832 2570.5,913  2526,913"/><text style="font-weight:Normal; font-size: 12px; text-anchor: middle; font-family: sans-serif; fill: #333333;" class="" y="913" x="2547"/><text style="font-weight:Normal; font-size: 12px; text-anchor: start; font-family: sans-serif; fill: #333333;" class="" y="872" x="2570"/><text style="font-weight:Normal; font-size: 12px; text-anchor: middle; font-family: sans-serif; fill: #333333;" class="" y="852" x="2615"/></g><g transform="translate(0,0)"><rect style="fill: #ccccff;fill-opacity: 0;stroke-opacity:1;stroke-width: 2;stroke:#333333;" rx="9" height="38" width="90" y="1087" x="2568"/><text style="font-weight:bold; font-size: 12px; text-anchor: middle; font-family: arial,helvetica,sans-serif; fill: #333333;" class="" y="1111" x="2613">ocaciones</text></g><g transform="translate(0,0)"><path style="fill:none;stroke:#333333;stroke-width:1;;" d="M2281,1118 C2281,1093.5 2365,1093.5  2365,1069"/><text style="font-weight:Normal; font-size: 12px; text-anchor: middle; font-family: sans-serif; fill: #333333;" class="" y="1065" x="2344"/><text style="font-weight:Normal; font-size: 12px; text-anchor: start; font-family: sans-serif; fill: #333333;" class="" y="1093" x="2323"/><text style="font-weight:Normal; font-size: 12px; text-anchor: middle; font-family: sans-serif; fill: #333333;" class="" y="1098" x="2285"/></g><g transform="translate(0,0)"><rect style="fill: #ccccff;fill-opacity: 0;stroke-opacity:1;stroke-width: 2;stroke:#333333;" rx="0" height="181" width="170" y="880" x="1867"/><path style="fill:rgb(238,238,238);stroke:rgb(238,238,238);stroke-width:1;;" d="M1937,873 1965,871 1967,886 1935,887  z"/><text style="font-weight:Normal; font-size: 12px; text-anchor: start; font-family: arial,helvetica,sans-serif; fill: #333333;" class="" y="906" x="1880"><tspan font-style="italic" x="1880">Espacio intermolecular es</tspan><tspan font-style="italic" dy="17" x="1880">el término utilizado en la</tspan><tspan font-style="italic" dy="17" x="1880">química y física para</tspan><tspan font-style="italic" dy="17" x="1880">referirse a los espacios</tspan><tspan font-style="italic" dy="17" x="1880">existentes entre las</tspan><tspan font-style="italic" dy="17" x="1880">moléculas, al estar éstas</tspan><tspan font-style="italic" dy="17" x="1880">en un estado básico de la</tspan><tspan font-style="italic" dy="17" x="1880">materia (sólido, líquido o</tspan><tspan font-style="italic" dy="17" x="1880">gaseoso)</tspan><tspan font-style="italic" dy="17" x="1880"/></text></g><g transform="translate(0,0)"><path style="fill:none;stroke:#333333;stroke-width:1;;" d="M2039,970 C2147,970 2147,1033  2255,1033"/><text style="font-weight:Normal; font-size: 12px; text-anchor: middle; font-family: sans-serif; fill: #333333;" class="" y="1014" x="2243"/><text style="font-weight:Normal; font-size: 12px; text-anchor: start; font-family: sans-serif; fill: #333333;" class="" y="1001" x="2147"/><text style="font-weight:Normal; font-size: 12px; text-anchor: middle; font-family: sans-serif; fill: #333333;" class="" y="958" x="2056"/></g><g transform="translate(0,0)"><path style="fill:none;stroke:#333333;stroke-width:1;;" d="M2590,1458 C2474,1458 2474,1423  2358,1423"/><text style="font-weight:Normal; font-size: 12px; text-anchor: middle; font-family: sans-serif; fill: #333333;" class="" y="1439" x="2371"/><text style="font-weight:Normal; font-size: 12px; text-anchor: start; font-family: sans-serif; fill: #333333;" class="" y="1440" x="2474"/><text style="font-weight:Normal; font-size: 12px; text-anchor: middle; font-family: sans-serif; fill: #333333;" class="" y="1470" x="2574"/></g><g transform="translate(0,0)"><path style="fill:none;stroke:#333333;stroke-width:1;;" d="M2281,1276 C2281,1318 2302,1318  2302,1360"/><text style="font-weight:Normal; font-size: 12px; text-anchor: middle; font-family: sans-serif; fill: #333333;" class="" y="1341" x="2312"/><text style="font-weight:Normal; font-size: 12px; text-anchor: start; font-family: sans-serif; fill: #333333;" class="" y="1318" x="2291"/><text style="font-weight:Normal; font-size: 12px; text-anchor: middle; font-family: sans-serif; fill: #333333;" class="" y="1285" x="2298"/></g><g transform="translate(0,0)"><rect style="fill: #ccccff;fill-opacity: 0;stroke-opacity:1;stroke-width: 2;stroke:#333333;" rx="0" height="113" width="170" y="1313" x="1962"/><path style="fill:rgb(238,238,238);stroke:rgb(238,238,238);stroke-width:1;;" d="M2032,1306 2060,1304 2062,1319 2030,1320  z"/><text style="font-weight:Normal; font-size: 12px; text-anchor: start; font-family: arial,helvetica,sans-serif; fill: #333333;" class="" y="1339" x="1975"><tspan x="1975"> estado básico de la</tspan><tspan dy="17" x="1975">materia : bloque/modulo</tspan><tspan dy="17" x="1975"> minimo  del hosptial que</tspan><tspan dy="17" x="1975">pude adaptarse a distintos</tspan><tspan dy="17" x="1975">usos.</tspan></text></g><g transform="translate(0,0)"><path style="fill:none;stroke:#333333;stroke-width:1;;" d="M2693,1458 C2737,1458 2781,1313.5  2781,1169"/><text style="font-weight:Normal; font-size: 12px; text-anchor: middle; font-family: sans-serif; fill: #333333;" class="" y="1180" x="2762"/><text style="font-weight:Normal; font-size: 12px; text-anchor: start; font-family: sans-serif; fill: #333333;" class="" y="1367" x="2753"/><text style="font-weight:Normal; font-size: 12px; text-anchor: middle; font-family: sans-serif; fill: #333333;" class="" y="1440" x="2682"/></g><g transform="translate(0,0)"><path style="fill:none;stroke:#333333;stroke-width:1;;" d="M2302,1487 C2302,1526.5 2434,1526.5  2434,1566"/><text style="font-weight:Normal; font-size: 12px; text-anchor: middle; font-family: sans-serif; fill: #333333;" class="" y="1545" x="2427"/><text style="font-weight:Normal; font-size: 12px; text-anchor: start; font-family: sans-serif; fill: #333333;" class="" y="1526" x="2368"/><text style="font-weight:Normal; font-size: 12px; text-anchor: middle; font-family: sans-serif; fill: #333333;" class="" y="1481" x="2321"/></g><g transform="translate(0,0)"><rect style="fill: #ccccff;fill-opacity: 0;stroke-opacity:1;stroke-width: 2;stroke:#333333;" rx="9" height="178" width="155" y="1568" x="2357"/><text style="font-weight:bold; font-size: 18px; text-anchor: middle; font-family: arial,helvetica,sans-serif; fill: #333333;" class="" y="1601" x="2434">diagnostico</text><text style="font-weight:bold; font-size: 18px; text-anchor: middle; font-family: arial,helvetica,sans-serif; fill: #333333;" class="" y="1626" x="2434">quirofanos</text><text style="font-weight:bold; font-size: 18px; text-anchor: middle; font-family: arial,helvetica,sans-serif; fill: #333333;" class="" y="1651" x="2434">internaciones</text><text style="font-weight:bold; font-size: 18px; text-anchor: middle; font-family: arial,helvetica,sans-serif; fill: #333333;" class="" y="1676" x="2434">urgencias</text><text style="font-weight:bold; font-size: 18px; text-anchor: middle; font-family: arial,helvetica,sans-serif; fill: #333333;" class="" y="1701" x="2434">servicios</text><text style="font-weight:bold; font-size: 18px; text-anchor: middle; font-family: arial,helvetica,sans-serif; fill: #333333;" class="" y="1726" x="2434"/></g><g transform="translate(0,0)"><rect style="fill: #ccccff;fill-opacity: 0;stroke-opacity:1;stroke-width: 2;stroke:#333333;" rx="9" height="123" width="108" y="1362" x="2248"/><text style="font-weight:bold; font-size: 12px; text-anchor: middle; font-family: arial,helvetica,sans-serif; fill: #333333;" class="" y="1386" x="2302">diagnostico</text><text style="font-weight:bold; font-size: 12px; text-anchor: middle; font-family: arial,helvetica,sans-serif; fill: #333333;" class="" y="1403" x="2302">quirofanos</text><text style="font-weight:bold; font-size: 12px; text-anchor: middle; font-family: arial,helvetica,sans-serif; fill: #333333;" class="" y="1420" x="2302">internaciones</text><text style="font-weight:bold; font-size: 12px; text-anchor: middle; font-family: arial,helvetica,sans-serif; fill: #333333;" class="" y="1437" x="2302">urgencias</text><text style="font-weight:bold; font-size: 12px; text-anchor: middle; font-family: arial,helvetica,sans-serif; fill: #333333;" class="" y="1454" x="2302">servicios</text><text style="font-weight:bold; font-size: 12px; text-anchor: middle; font-family: arial,helvetica,sans-serif; fill: #333333;" class="" y="1471" x="2302"/></g><g transform="translate(0,0)"><g transform="matrix(1,0,0,1,2592,1439)"><path style="fill:none;stroke:#333333;stroke-width:1.0101010101010102;;" d="m98.99993466,18.999959466666667c0,10.143623733333333 -22.70867544,18.999911333333333 -49.50004356,18.999911333333333c-26.791223579999997,0 -49.50004356,-8.856362333333333 -49.50004356,-18.999911333333333c0,-10.143623733333333 22.70867544,-19.000096266666667 49.50004356,-19.000096266666667c26.791223579999997,0 49.50004356,8.856362333333333 49.50004356,18.999911333333333z"/></g><text style="font-weight:bold; font-size: 12px; text-anchor: middle; font-family: arial,helvetica,sans-serif; fill: #333333;" class="svg-txt-center" y="1463" x="2641">esperas</text></g><g transform="translate(0,0)"><g transform="matrix(1,0,0,1,2621,1192)"><path style="fill:none;stroke:#333333;stroke-width:1.0204081632653061;;" d="m97.99993531999999,18.999959466666667c0,10.143623733333333 -22.479294879999998,18.999911333333333 -49.00004312,18.999911333333333c-26.52060516,0 -49.00004312,-8.856362333333333 -49.00004312,-18.999911333333333c0,-10.143623733333333 22.479294879999998,-19.000096266666667 49.00004312,-19.000096266666667c26.52060516,0 49.00004312,8.856362333333333 49.00004312,18.999911333333333z"/></g><text style="font-weight:bold; font-size: 12px; text-anchor: middle; font-family: arial,helvetica,sans-serif; fill: #333333;" class="svg-txt-center" y="1216" x="2670">tiempos</text></g><g transform="translate(0,0)"><g transform="matrix(1,0,0,1,2734,1129)"><path style="fill:none;stroke:#333333;stroke-width:1.0526315789473684;;" d="m94.99993729999998,18.999959466666667c0,10.143623733333333 -21.7911532,18.999911333333333 -47.5000418,18.999911333333333c-25.708749899999997,0 -47.5000418,-8.856362333333333 -47.5000418,-18.999911333333333c0,-10.143623733333333 21.7911532,-19.000096266666667 47.5000418,-19.000096266666667c25.708749899999997,0 47.5000418,8.856362333333333 47.5000418,18.999911333333333z"/></g><text style="font-weight:bold; font-size: 12px; text-anchor: middle; font-family: arial,helvetica,sans-serif; fill: #333333;" class="svg-txt-center" y="1153" x="2781">pausas</text></g><g transform="translate(0,0)"><g transform="matrix(1,0,0,1,2874,1060)"><path style="fill:none;stroke:#333333;stroke-width:0.8;;" d="m124.9999175,18.999959466666667c0,10.143623733333333 -28.67257,18.999911333333333 -62.500055,18.999911333333333c-33.8273025,0 -62.500055,-8.856362333333333 -62.500055,-18.999911333333333c0,-10.143623733333333 28.67257,-19.000096266666667 62.500055,-19.000096266666667c33.8273025,0 62.500055,8.856362333333333 62.500055,18.999911333333333z"/></g><text style="font-weight:bold; font-size: 12px; text-anchor: middle; font-family: arial,helvetica,sans-serif; fill: #333333;" class="svg-txt-center" y="1084" x="2936">vida y muerte</text></g><g transform="translate(0,0)"><g transform="matrix(1,0,0,1,2617,813)"><path style="fill:none;stroke:#333333;stroke-width:0.8771929824561404;;" d="m113.99992475999998,18.999959466666667c0,10.143623733333333 -26.14938384,18.999911333333333 -57.00005016,18.999911333333333c-30.850499879999997,0 -57.00005016,-8.856362333333333 -57.00005016,-18.999911333333333c0,-10.143623733333333 26.14938384,-19.000096266666667 57.00005016,-19.000096266666667c30.850499879999997,0 57.00005016,8.856362333333333 57.00005016,18.999911333333333z"/></g><text style="font-weight:bold; font-size: 12px; text-anchor: middle; font-family: arial,helvetica,sans-serif; fill: #333333;" class="svg-txt-center" y="837" x="2674">vinculacion</text></g><g transform="translate(0,0)"><path style="fill:none;stroke:#333333;stroke-width:1;;" d="M2358,1423 C2445,1423 2532,1373.5  2532,1324"/><text style="font-weight:Normal; font-size: 12px; text-anchor: middle; font-family: sans-serif; fill: #333333;" class="" y="1318" x="2511"/><text style="font-weight:Normal; font-size: 12px; text-anchor: start; font-family: sans-serif; fill: #333333;" class="" y="1392" x="2477"/><text style="font-weight:Normal; font-size: 12px; text-anchor: middle; font-family: sans-serif; fill: #333333;" class="" y="1403" x="2362"/></g><g transform="translate(0,0)"><path style="fill:none;stroke:#333333;stroke-width:1;;" d="M2579,1303 C2610,1303 2641,1370  2641,1437"/><text style="font-weight:Normal; font-size: 12px; text-anchor: middle; font-family: sans-serif; fill: #333333;" class="" y="1416" x="2647"/><text style="font-weight:Normal; font-size: 12px; text-anchor: start; font-family: sans-serif; fill: #333333;" class="" y="1344" x="2621"/><text style="font-weight:Normal; font-size: 12px; text-anchor: middle; font-family: sans-serif; fill: #333333;" class="" y="1308" x="2597"/></g><g transform="translate(0,0)"><path style="fill:none;stroke:#333333;stroke-width:1;;" d="M2134,1369 C2161,1369 2188,1322.5  2188,1276"/><text style="font-weight:Normal; font-size: 12px; text-anchor: middle; font-family: sans-serif; fill: #333333;" class="" y="1282" x="2167"/><text style="font-weight:Normal; font-size: 12px; text-anchor: start; font-family: sans-serif; fill: #333333;" class="" y="1339" x="2171"/><text style="font-weight:Normal; font-size: 12px; text-anchor: middle; font-family: sans-serif; fill: #333333;" class="" y="1349" x="2128"/></g><g transform="translate(0,0)"><rect style="fill: #ccccff;fill-opacity: 0;stroke-opacity:1;stroke-width: 2;stroke:#333333;" rx="9" height="38" width="90" y="1284" x="2487"/><text style="font-weight:bold; font-size: 12px; text-anchor: middle; font-family: arial,helvetica,sans-serif; fill: #333333;" class="" y="1308" x="2532">restriccion</text></g><g transform="translate(0,0)"><rect style="fill: #ccccff;fill-opacity: 0;stroke-opacity:1;stroke-width: 2;stroke:#333333;" rx="9" height="38" width="55" y="894" x="2469"/><text style="font-weight:bold; font-size: 12px; text-anchor: middle; font-family: arial,helvetica,sans-serif; fill: #333333;" class="" y="918" x="2496">vias</text></g><text style="font-weight:Normal; font-size: 16px; text-anchor: end; font-family: Arial; fill: #ccc;" y="1746" x="2999">www.sketchboard.io</text></svg>